<svg 
 xmlns="http://www.w3.org/2000/svg"
 xmlns:xlink="http://www.w3.org/1999/xlink"
 width="19px" height="20px">
<path fill-rule="evenodd"  fill="rgb(228, 0, 43)"
 d="M3.455,-0.000 L3.455,0.870 L0.000,0.870 L0.000,20.000 L19.000,20.000 L19.000,0.870 L15.545,0.870 L15.545,-0.000 L13.818,-0.000 L13.818,0.870 L5.182,0.870 L5.182,-0.000 L3.455,-0.000 ZM1.727,2.609 L3.455,2.609 L3.455,3.478 L5.182,3.478 L5.182,2.609 L13.818,2.609 L13.818,3.478 L15.545,3.478 L15.545,2.609 L17.273,2.609 L17.273,4.348 L1.727,4.348 L1.727,2.609 ZM1.727,6.087 L17.273,6.087 L17.273,18.261 L1.727,18.261 L1.727,6.087 ZM6.909,7.826 L6.909,9.565 L8.636,9.565 L8.636,7.826 L6.909,7.826 ZM10.364,7.826 L10.364,9.565 L12.091,9.565 L12.091,7.826 L10.364,7.826 ZM13.818,7.826 L13.818,9.565 L15.545,9.565 L15.545,7.826 L13.818,7.826 ZM3.455,11.304 L3.455,13.043 L5.182,13.043 L5.182,11.304 L3.455,11.304 ZM6.909,11.304 L6.909,13.043 L8.636,13.043 L8.636,11.304 L6.909,11.304 ZM10.364,11.304 L10.364,13.043 L12.091,13.043 L12.091,11.304 L10.364,11.304 ZM13.818,11.304 L13.818,13.043 L15.545,13.043 L15.545,11.304 L13.818,11.304 ZM3.455,14.783 L3.455,16.522 L5.182,16.522 L5.182,14.783 L3.455,14.783 ZM6.909,14.783 L6.909,16.522 L8.636,16.522 L8.636,14.783 L6.909,14.783 ZM10.364,14.783 L10.364,16.522 L12.091,16.522 L12.091,14.783 L10.364,14.783 Z"/>
</svg>